<mxfile host="app.diagrams.net" modified="2021-10-26T02:41:47.730Z" agent="5.0 (Macintosh; Intel Mac OS X 10_15_7) AppleWebKit/537.36 (KHTML, like Gecko) Chrome/94.0.4606.81 Safari/537.36" etag="Gaa1EXFbHdhZf9SXJvDY" version="15.5.9" type="github">
  <diagram id="mBfj8Z1WwXOkY7Xo1tF7" name="Page-1">
    <mxGraphModel dx="1351" dy="877" grid="1" gridSize="10" guides="1" tooltips="1" connect="1" arrows="1" fold="1" page="1" pageScale="1" pageWidth="850" pageHeight="1100" math="0" shadow="0">
      <root>
        <mxCell id="0" />
        <mxCell id="1" parent="0" />
        <mxCell id="fSmmvaD_VFtoIKGgGKEK-15" value="View - ReactJS" style="swimlane;align=center;startSize=23;" parent="1" vertex="1">
          <mxGeometry x="640" y="530" width="230" height="200" as="geometry" />
        </mxCell>
        <mxCell id="fSmmvaD_VFtoIKGgGKEK-16" value="JavaScript, HTML, CSS" style="text;strokeColor=none;fillColor=none;align=left;verticalAlign=middle;spacingLeft=4;spacingRight=4;overflow=hidden;points=[[0,0.5],[1,0.5]];portConstraint=eastwest;rotatable=0;" parent="fSmmvaD_VFtoIKGgGKEK-15" vertex="1">
          <mxGeometry x="10" y="30" width="170" height="30" as="geometry" />
        </mxCell>
        <mxCell id="1hfYZ1iNuW0zuiRspNUj-5" value="React - chartjs - 2: to visualize data" style="text;html=1;strokeColor=none;fillColor=none;align=left;verticalAlign=middle;whiteSpace=wrap;rounded=0;fontSize=14;" vertex="1" parent="fSmmvaD_VFtoIKGgGKEK-15">
          <mxGeometry x="10" y="60" width="210" height="28.17" as="geometry" />
        </mxCell>
        <mxCell id="fSmmvaD_VFtoIKGgGKEK-34" value="&lt;font style=&quot;font-size: 14px&quot;&gt;Request data&lt;/font&gt;" style="text;html=1;strokeColor=none;fillColor=none;align=center;verticalAlign=middle;whiteSpace=wrap;rounded=0;" parent="1" vertex="1">
          <mxGeometry x="180" y="320" width="100" height="30" as="geometry" />
        </mxCell>
        <mxCell id="fSmmvaD_VFtoIKGgGKEK-35" value="&lt;font style=&quot;font-size: 14px&quot;&gt;Respond modified data to client&lt;/font&gt;" style="text;html=1;strokeColor=none;fillColor=none;align=center;verticalAlign=middle;whiteSpace=wrap;rounded=0;" parent="1" vertex="1">
          <mxGeometry x="180" y="460" width="120" height="30" as="geometry" />
        </mxCell>
        <mxCell id="fSmmvaD_VFtoIKGgGKEK-37" value="" style="html=1;shadow=0;dashed=0;align=center;verticalAlign=middle;shape=mxgraph.arrows2.arrow;dy=0.6;dx=40;notch=0;" parent="1" vertex="1">
          <mxGeometry x="190" y="350" width="100" height="20" as="geometry" />
        </mxCell>
        <mxCell id="fSmmvaD_VFtoIKGgGKEK-38" value="" style="html=1;shadow=0;dashed=0;align=center;verticalAlign=middle;shape=mxgraph.arrows2.arrow;dy=0.6;dx=40;flipH=1;notch=0;" parent="1" vertex="1">
          <mxGeometry x="190" y="410" width="100" height="20" as="geometry" />
        </mxCell>
        <mxCell id="fSmmvaD_VFtoIKGgGKEK-40" value="&lt;font style=&quot;font-size: 14px&quot;&gt;useQuery, useMutation to update data - Request raw data from Model&lt;/font&gt;" style="text;html=1;strokeColor=none;fillColor=none;align=center;verticalAlign=middle;whiteSpace=wrap;rounded=0;rotation=-30;" parent="1" vertex="1">
          <mxGeometry x="410" y="120" width="200" height="30" as="geometry" />
        </mxCell>
        <mxCell id="fSmmvaD_VFtoIKGgGKEK-41" value="&lt;font style=&quot;font-size: 14px&quot;&gt;Respond raw data to controller&lt;/font&gt;" style="text;html=1;strokeColor=none;fillColor=none;align=center;verticalAlign=middle;whiteSpace=wrap;rounded=0;rotation=-30;" parent="1" vertex="1">
          <mxGeometry x="490" y="260" width="120" height="30" as="geometry" />
        </mxCell>
        <mxCell id="fSmmvaD_VFtoIKGgGKEK-48" value="" style="html=1;shadow=0;dashed=0;align=center;verticalAlign=middle;shape=mxgraph.arrows2.arrow;dy=0.7;dx=50.66;direction=north;notch=0;rotation=60;" parent="1" vertex="1">
          <mxGeometry x="520" y="90" width="30" height="151.83" as="geometry" />
        </mxCell>
        <mxCell id="fSmmvaD_VFtoIKGgGKEK-49" value="" style="html=1;shadow=0;dashed=0;align=center;verticalAlign=middle;shape=mxgraph.arrows2.arrow;dy=0.7;dx=50.66;direction=north;notch=0;rotation=-120;" parent="1" vertex="1">
          <mxGeometry x="510" y="160" width="30" height="151.83" as="geometry" />
        </mxCell>
        <mxCell id="fSmmvaD_VFtoIKGgGKEK-50" value="" style="html=1;shadow=0;dashed=0;align=center;verticalAlign=middle;shape=mxgraph.arrows2.arrow;dy=0.7;dx=50.66;direction=north;notch=0;rotation=135;" parent="1" vertex="1">
          <mxGeometry x="550" y="470" width="30" height="151.83" as="geometry" />
        </mxCell>
        <mxCell id="fSmmvaD_VFtoIKGgGKEK-51" value="" style="html=1;shadow=0;dashed=0;align=center;verticalAlign=middle;shape=mxgraph.arrows2.arrow;dy=0.7;dx=50.66;direction=north;notch=0;rotation=-45;" parent="1" vertex="1">
          <mxGeometry x="520" y="510" width="30" height="151.83" as="geometry" />
        </mxCell>
        <mxCell id="fSmmvaD_VFtoIKGgGKEK-53" value="&lt;font style=&quot;font-size: 14px&quot;&gt;Sending raw data to view&amp;nbsp;&amp;nbsp;&lt;/font&gt;" style="text;html=1;strokeColor=none;fillColor=none;align=center;verticalAlign=middle;whiteSpace=wrap;rounded=0;rotation=45;" parent="1" vertex="1">
          <mxGeometry x="520" y="500" width="120" height="30" as="geometry" />
        </mxCell>
        <mxCell id="fSmmvaD_VFtoIKGgGKEK-54" value="&lt;font style=&quot;font-size: 14px&quot;&gt;Resonpond with modified data&lt;/font&gt;" style="text;html=1;strokeColor=none;fillColor=none;align=center;verticalAlign=middle;whiteSpace=wrap;rounded=0;rotation=45;" parent="1" vertex="1">
          <mxGeometry x="433.37" y="593.23" width="130" height="44.63" as="geometry" />
        </mxCell>
        <mxCell id="fSmmvaD_VFtoIKGgGKEK-55" value="" style="html=1;shadow=0;dashed=0;align=center;verticalAlign=middle;shape=mxgraph.arrows2.arrow;dy=0.7;dx=50.66;direction=north;notch=0;rotation=125;" parent="1" vertex="1">
          <mxGeometry x="920" y="103.17" width="30" height="151.83" as="geometry" />
        </mxCell>
        <mxCell id="fSmmvaD_VFtoIKGgGKEK-56" value="&lt;span style=&quot;font-size: 14px&quot;&gt;Query resolver - request data, Mutation resolver to update data&amp;nbsp;&lt;/span&gt;" style="text;html=1;strokeColor=none;fillColor=none;align=center;verticalAlign=middle;whiteSpace=wrap;rounded=0;rotation=35;" parent="1" vertex="1">
          <mxGeometry x="890" y="120" width="145" height="50" as="geometry" />
        </mxCell>
        <mxCell id="fSmmvaD_VFtoIKGgGKEK-58" value="" style="html=1;shadow=0;dashed=0;align=center;verticalAlign=middle;shape=mxgraph.arrows2.arrow;dy=0.7;dx=50.66;direction=north;notch=0;rotation=-60;" parent="1" vertex="1">
          <mxGeometry x="890" y="180.00000000000003" width="30" height="151.83" as="geometry" />
        </mxCell>
        <mxCell id="fSmmvaD_VFtoIKGgGKEK-60" value="&lt;span style=&quot;font-size: 14px&quot;&gt;Return raw data to Model&lt;/span&gt;" style="text;html=1;strokeColor=none;fillColor=none;align=center;verticalAlign=middle;whiteSpace=wrap;rounded=0;rotation=30;" parent="1" vertex="1">
          <mxGeometry x="830" y="270" width="120" height="30" as="geometry" />
        </mxCell>
        <mxCell id="fSmmvaD_VFtoIKGgGKEK-64" value="&lt;b&gt;VOICED-POWERED SELF-PRODUCTIVITY APPLICATION&lt;/b&gt;" style="rounded=1;whiteSpace=wrap;html=1;" parent="1" vertex="1">
          <mxGeometry x="180" y="40" width="250" height="60" as="geometry" />
        </mxCell>
        <mxCell id="1hfYZ1iNuW0zuiRspNUj-1" value="@Apollo - server- express" style="text;html=1;strokeColor=none;fillColor=none;align=center;verticalAlign=middle;whiteSpace=wrap;rounded=0;rotation=30;" vertex="1" parent="1">
          <mxGeometry x="880" y="200" width="60" height="30" as="geometry" />
        </mxCell>
        <mxCell id="1hfYZ1iNuW0zuiRspNUj-2" value="Database -MoongoDB" style="rounded=0;whiteSpace=wrap;html=1;fontSize=14;" vertex="1" parent="1">
          <mxGeometry x="1000" y="255" width="160" height="60" as="geometry" />
        </mxCell>
        <mxCell id="1hfYZ1iNuW0zuiRspNUj-3" value="Model - Mongoose" style="rounded=1;whiteSpace=wrap;html=1;fontSize=14;" vertex="1" parent="1">
          <mxGeometry x="630" y="97.5" width="160" height="75" as="geometry" />
        </mxCell>
        <mxCell id="1hfYZ1iNuW0zuiRspNUj-4" value="Controller - ExpressJS and NodeJS" style="rounded=0;whiteSpace=wrap;html=1;fontSize=14;" vertex="1" parent="1">
          <mxGeometry x="320" y="350" width="170" height="60" as="geometry" />
        </mxCell>
        <mxCell id="1hfYZ1iNuW0zuiRspNUj-7" value="via @Speechly - React - Client" style="text;html=1;strokeColor=none;fillColor=none;align=center;verticalAlign=middle;whiteSpace=wrap;rounded=0;fontSize=14;" vertex="1" parent="1">
          <mxGeometry x="155" y="375" width="170" height="30" as="geometry" />
        </mxCell>
        <mxCell id="1hfYZ1iNuW0zuiRspNUj-8" value="via @Apollo - Client" style="text;html=1;strokeColor=none;fillColor=none;align=center;verticalAlign=middle;whiteSpace=wrap;rounded=0;fontSize=14;rotation=-30;" vertex="1" parent="1">
          <mxGeometry x="465" y="190" width="140" height="30" as="geometry" />
        </mxCell>
        <mxCell id="1hfYZ1iNuW0zuiRspNUj-9" value="" style="endArrow=classic;html=1;rounded=0;fontSize=14;" edge="1" parent="1">
          <mxGeometry width="50" height="50" relative="1" as="geometry">
            <mxPoint x="330" y="250" as="sourcePoint" />
            <mxPoint x="380" y="200" as="targetPoint" />
          </mxGeometry>
        </mxCell>
        <mxCell id="1hfYZ1iNuW0zuiRspNUj-10" value="Client - @Speechly" style="rounded=0;whiteSpace=wrap;html=1;fontSize=14;align=center;" vertex="1" parent="1">
          <mxGeometry x="10" y="345" width="140" height="60" as="geometry" />
        </mxCell>
      </root>
    </mxGraphModel>
  </diagram>
</mxfile>
